<mxfile host="app.diagrams.net" agent="Mozilla/5.0 (Macintosh; Intel Mac OS X 10_15_7) AppleWebKit/537.36 (KHTML, like Gecko) Chrome/127.0.0.0 Safari/537.36" version="24.7.6">
  <diagram name="Page-1" id="d9b1e647-80fa-b4a2-5024-87a742678bcc">
    <mxGraphModel dx="1306" dy="1551" grid="1" gridSize="10" guides="1" tooltips="1" connect="1" arrows="1" fold="1" page="1" pageScale="1" pageWidth="1100" pageHeight="850" background="none" math="0" shadow="0">
      <root>
        <mxCell id="0" />
        <mxCell id="1" parent="0" />
        <mxCell id="hByDfbpF1siI-fQXKtIW-1" value="第一阶段&lt;div&gt;（8月）&lt;/div&gt;" style="shape=step;perimeter=stepPerimeter;whiteSpace=wrap;html=1;fixedSize=1;fillColor=none;" vertex="1" parent="1">
          <mxGeometry x="110" y="10" width="170" height="70" as="geometry" />
        </mxCell>
        <mxCell id="hByDfbpF1siI-fQXKtIW-2" value="第二阶段&lt;div&gt;（待定）&lt;/div&gt;" style="shape=step;perimeter=stepPerimeter;whiteSpace=wrap;html=1;fixedSize=1;fillColor=none;" vertex="1" parent="1">
          <mxGeometry x="320" y="10" width="170" height="70" as="geometry" />
        </mxCell>
        <mxCell id="hByDfbpF1siI-fQXKtIW-3" value="第三阶段&lt;div&gt;（待定）&lt;br&gt;&lt;/div&gt;" style="shape=step;perimeter=stepPerimeter;whiteSpace=wrap;html=1;fixedSize=1;fillColor=none;" vertex="1" parent="1">
          <mxGeometry x="530" y="10" width="170" height="70" as="geometry" />
        </mxCell>
        <mxCell id="hByDfbpF1siI-fQXKtIW-4" value="&lt;b&gt;2024&lt;/b&gt;" style="rounded=0;whiteSpace=wrap;html=1;fillColor=none;" vertex="1" parent="1">
          <mxGeometry x="110" y="-60" width="590" height="50" as="geometry" />
        </mxCell>
        <mxCell id="hByDfbpF1siI-fQXKtIW-5" value="1.&amp;nbsp;" style="rounded=0;whiteSpace=wrap;html=1;fillColor=none;align=left;" vertex="1" parent="1">
          <mxGeometry x="110" y="120" width="170" height="230" as="geometry" />
        </mxCell>
        <mxCell id="hByDfbpF1siI-fQXKtIW-6" value="" style="rounded=0;whiteSpace=wrap;html=1;fillColor=none;" vertex="1" parent="1">
          <mxGeometry x="320" y="120" width="170" height="230" as="geometry" />
        </mxCell>
        <mxCell id="hByDfbpF1siI-fQXKtIW-7" value="" style="rounded=0;whiteSpace=wrap;html=1;fillColor=none;" vertex="1" parent="1">
          <mxGeometry x="530" y="120" width="170" height="230" as="geometry" />
        </mxCell>
      </root>
    </mxGraphModel>
  </diagram>
</mxfile>
